<svg width="169" height="179" viewBox="0 0 169 179" fill="none" xmlns="http://www.w3.org/2000/svg">
<circle cx="161.077" cy="123.923" r="7.38462" fill="#FDBF2E"/>
<path d="M35.1509 116.52V153.56H40.1909V116.52H35.1509ZM22.9509 129.16V133.48H29.0709V129.16H22.9509ZM27.6709 117.12V151.88H32.6309V117.12H27.6709ZM14.9509 122.56V126.36C14.9509 132.68 13.0709 139.32 7.63087 142.72L10.7909 146.64C16.6709 142.96 18.9509 134.68 18.9509 126.36V122.56H14.9509ZM16.1509 122.56V126.36C16.1509 134.52 18.3109 142.28 24.1909 145.76L27.3109 141.88C21.9509 138.76 20.1109 132.52 20.1109 126.36V122.56H16.1509ZM9.03087 120.24V124.52H25.5509V120.24H9.03087ZM68.7077 116.48V153.64H74.0277V116.48H68.7077ZM45.1877 140.68V145H48.4677C55.2277 145 60.6677 144.8 66.6677 143.72L66.1477 139.44C60.2677 140.44 55.0277 140.68 48.4677 140.68H45.1877ZM45.1477 119.64V123.88H57.1877V129.76H45.1877V142.28H50.5877V133.96H62.6277V119.64H45.1477ZM84.6246 123.8V124.96C84.6246 128.92 82.6246 132.72 77.9446 134.44L80.3846 138.36C86.1846 136.2 88.5846 130.88 88.5846 124.96V123.8H84.6246ZM85.7046 123.8V124.96C85.7046 130.64 88.1046 135.76 93.9446 137.76L96.3046 133.84C91.6646 132.24 89.6246 128.68 89.6246 124.96V123.8H85.7046ZM78.9846 120.68V124.84H95.2246V120.68H78.9846ZM84.6246 116.88V122.6H89.6246V116.88H84.6246ZM104.505 116.56V139.24H109.545V116.56H104.505ZM100.065 125.8V130.04H105.945V125.8H100.065ZM96.7846 117.12V139.08H101.745V117.12H96.7846ZM84.1046 140.8V145.04H104.265V153.56H109.545V140.8H84.1046ZM129.861 139.16C122.141 139.16 117.301 141.84 117.301 146.36C117.301 150.92 122.141 153.6 129.861 153.6C137.541 153.6 142.381 150.92 142.381 146.36C142.381 141.84 137.541 139.16 129.861 139.16ZM129.861 143.32C134.581 143.32 137.101 144.28 137.101 146.36C137.101 148.48 134.581 149.48 129.861 149.48C125.141 149.48 122.581 148.48 122.581 146.36C122.581 144.28 125.141 143.32 129.861 143.32ZM136.621 116.52V138.32H141.941V116.52H136.621ZM140.461 125.12V129.52H146.861V125.12H140.461ZM113.861 118.88V136.28H131.661V118.88H126.381V123.44H119.141V118.88H113.861ZM119.141 127.56H126.381V132.12H119.141V127.56Z" fill="#171717"/>
<path d="M3.74958 165.76V166.166C3.74958 167.776 2.81158 169.302 1.20158 169.946L1.77558 170.814C3.60958 170.044 4.63158 168.21 4.63158 166.166V165.76H3.74958ZM3.97358 165.76V166.166C3.97358 168.112 4.99558 169.862 6.85758 170.59L7.40358 169.722C5.80758 169.106 4.84158 167.678 4.84158 166.166V165.76H3.97358ZM1.45358 165.102V166.04H7.09558V165.102H1.45358ZM3.74958 163.576V165.494H4.84158V163.576H3.74958ZM10.6656 163.45V171.206H11.7716V163.45H10.6656ZM8.62158 166.81V167.762H11.0156V166.81H8.62158ZM7.97758 163.66V171.122H9.06958V163.66H7.97758ZM3.28758 171.878V172.816H10.6236V176.092H11.7716V171.878H3.28758ZM19.0085 164.234C16.3765 164.234 14.4025 165.634 14.4025 167.734C14.4025 169.848 16.3765 171.234 19.0085 171.234C21.6405 171.234 23.6005 169.848 23.6005 167.734C23.6005 165.634 21.6405 164.234 19.0085 164.234ZM19.0085 165.186C21.0105 165.186 22.4945 166.208 22.4945 167.734C22.4945 169.246 21.0105 170.282 19.0085 170.282C17.0065 170.282 15.5225 169.246 15.5225 167.734C15.5225 166.208 17.0065 165.186 19.0085 165.186ZM13.2965 173.446V174.426H24.7625V173.446H13.2965ZM25.4754 173.572V174.538H36.9414V173.572H25.4754ZM30.5994 170.856V173.978H31.7614V170.856H30.5994ZM26.8614 164.374V165.312H34.3794V167.272H26.9034V170.744H28.0514V168.21H35.5274V164.374H26.8614ZM26.9034 170.254V171.206H35.8214V170.254H26.9034ZM46.279 165.41V166.362H50.087V165.41H46.279ZM46.279 168.448V169.4H50.087V168.448H46.279ZM49.667 163.45V172.802H50.829V163.45H49.667ZM42.751 174.86V175.812H51.179V174.86H42.751ZM42.751 171.836V175.28H43.913V171.836H42.751ZM43.871 164.248C42.009 164.248 40.609 165.55 40.609 167.412C40.609 169.274 42.009 170.576 43.871 170.576C45.733 170.576 47.133 169.274 47.133 167.412C47.133 165.55 45.733 164.248 43.871 164.248ZM43.871 165.27C45.103 165.27 46.027 166.166 46.027 167.412C46.027 168.672 45.103 169.568 43.871 169.568C42.639 169.568 41.729 168.672 41.729 167.412C41.729 166.166 42.639 165.27 43.871 165.27ZM61.8459 163.436V169.89H63.0079V163.436H61.8459ZM57.8419 164.052V164.626C57.8419 166.81 56.0779 168.476 52.8019 169.232L53.2079 170.184C56.9039 169.288 59.1019 167.244 59.1019 164.052H57.8419ZM53.4599 164.052V165.004H58.3739V164.052H53.4599ZM58.6539 165.256V166.18H62.0419V165.256H58.6539ZM58.5419 167.678V168.588H61.9719V167.678H58.5419ZM54.8599 170.478V171.416H61.8599V172.69H54.9019V175.602H56.0499V173.586H63.0079V170.478H54.8599ZM54.9019 175.042V175.966H63.4279V175.042H54.9019ZM65.7788 168.882V169.834H72.2608V168.882H65.7788ZM68.3688 169.638V172.55H69.5448V169.638H68.3688ZM65.7788 164.626V169.218H66.9408V165.578H72.1908V164.626H65.7788ZM73.9268 163.422V176.106H75.0888V163.422H73.9268ZM65.0088 173.362C67.4028 173.376 70.4268 173.32 73.1988 172.9L73.1008 172.032C70.4268 172.354 67.3188 172.382 64.8408 172.396L65.0088 173.362ZM78.5037 167.23V168.182H87.0997V167.23H78.5037ZM76.9497 169.876V170.828H88.4297V169.876H76.9497ZM78.5037 163.898V167.706H79.6517V163.898H78.5037ZM78.4197 174.832V175.784H87.1697V174.832H78.4197ZM78.4197 172.088V175.084H79.5677V172.088H78.4197ZM101.323 168.476V169.456H103.661V168.476H101.323ZM100.469 163.422V176.092H101.645V163.422H100.469ZM92.4052 164.668V172.508H93.5672V164.668H92.4052ZM92.4052 171.906V172.886H93.4132C95.3312 172.886 97.2772 172.76 99.4332 172.312L99.2932 171.346C97.2072 171.78 95.2892 171.906 93.4132 171.906H92.4052ZM104.612 164.57V170.436H110.422V164.57H104.612ZM109.288 165.508V169.498H105.746V165.508H109.288ZM112.746 163.422V172.704H113.908V163.422H112.746ZM113.544 167.286V168.252H115.784V167.286H113.544ZM106.026 174.86V175.812H114.482V174.86H106.026ZM106.026 171.822V175.266H107.188V171.822H106.026ZM120.375 164.346C118.401 164.346 116.973 165.564 116.973 167.328C116.973 169.106 118.401 170.324 120.375 170.324C122.349 170.324 123.763 169.106 123.763 167.328C123.763 165.564 122.349 164.346 120.375 164.346ZM120.375 165.354C121.677 165.354 122.629 166.152 122.629 167.328C122.629 168.504 121.677 169.316 120.375 169.316C119.059 169.316 118.107 168.504 118.107 167.328C118.107 166.152 119.059 165.354 120.375 165.354ZM125.415 163.422V176.106H126.577V163.422H125.415ZM116.497 173.334C118.751 173.334 121.845 173.32 124.687 172.774L124.589 171.92C121.831 172.354 118.639 172.368 116.329 172.368L116.497 173.334ZM136.895 171.416C134.193 171.416 132.485 172.298 132.485 173.754C132.485 175.196 134.193 176.064 136.895 176.064C139.583 176.064 141.305 175.196 141.305 173.754C141.305 172.298 139.583 171.416 136.895 171.416ZM136.895 172.326C138.883 172.326 140.143 172.872 140.143 173.754C140.143 174.622 138.883 175.168 136.895 175.168C134.907 175.168 133.633 174.622 133.633 173.754C133.633 172.872 134.907 172.326 136.895 172.326ZM132.583 164.066V165.018H140.731V164.066H132.583ZM131.225 169.33V170.268H142.649V169.33H131.225ZM135.915 166.894V169.596H137.063V166.894H135.915ZM140.059 164.066V165.144C140.059 166.138 140.059 167.062 139.709 168.364L140.857 168.504C141.193 167.188 141.193 166.166 141.193 165.144V164.066H140.059ZM152.056 163.436V172.69H153.218V163.436H152.056ZM152.854 167.272V168.238H155.094V167.272H152.854ZM148.598 164.416V164.92C148.598 167.356 146.596 169.316 143.404 170.296L143.908 171.248C147.534 170.086 149.83 167.692 149.83 164.416H148.598ZM143.922 164.416V165.368H149.186V164.416H143.922ZM145.322 174.86V175.812H153.778V174.86H145.322ZM145.322 171.752V175.238H146.484V171.752H145.322Z" fill="#171717"/>
<g clip-path="url(#clip0_513_7551)">
<path d="M110.849 19.5543C105.369 16.0735 98.4725 13.8851 93.7449 12.7994C100.55 13.6503 106.208 16.118 110.849 19.5543C113.852 21.4619 116.429 23.7578 117.99 26.473C125.432 35.7529 128.577 47.7108 128.656 56.0543C128.651 63.4313 121.037 73.9947 116.393 76.0164L35.3035 104L25.3493 76.2153L106.439 48.2317C111.852 46.3638 115.364 42.376 116.569 41.0078L116.624 40.9453C120.38 35.1849 120.244 30.3921 117.99 26.473C115.943 23.9205 113.571 21.5706 110.849 19.5543Z" fill="url(#paint0_linear_513_7551)"/>
<path d="M25.508 76.3281L96.6463 12.2041C121.51 18.8758 122.533 32.8029 119.936 38.9325C118.446 44.6505 110.115 48.9758 106.136 50.4237L25.508 76.3281Z" fill="url(#paint1_linear_513_7551)"/>
<path d="M25.3447 76.5391L70.6372 3.0101C93.1635 0.514843 97.0998 11.1064 96.2522 16.714C96.2504 21.6558 90.1493 27.6308 87.099 30.0005L25.3447 76.5391Z" fill="url(#paint2_linear_513_7551)"/>
</g>
<defs>
<linearGradient id="paint0_linear_513_7551" x1="36.6711" y1="83.7734" x2="126.799" y2="73.2292" gradientUnits="userSpaceOnUse">
<stop stop-color="#FDD94C"/>
<stop offset="1" stop-color="#FDA50F"/>
</linearGradient>
<linearGradient id="paint1_linear_513_7551" x1="38.3365" y1="71.3931" x2="123.22" y2="37.8158" gradientUnits="userSpaceOnUse">
<stop stop-color="#FFD75B"/>
<stop offset="1" stop-color="#FFC30B"/>
</linearGradient>
<linearGradient id="paint2_linear_513_7551" x1="56.0396" y1="17.7962" x2="72.008" y2="37.1357" gradientUnits="userSpaceOnUse">
<stop offset="0.0227765" stop-color="#FCD12A"/>
<stop offset="1" stop-color="#FFE891"/>
</linearGradient>
<clipPath id="clip0_513_7551">
<rect width="104" height="104" fill="white" transform="translate(26)"/>
</clipPath>
</defs>
</svg>
