<svg width="18" height="18" viewBox="0 0 18 18" fill="none" xmlns="http://www.w3.org/2000/svg">
<path d="M12.5303 6.53033C12.8232 6.23744 12.8232 5.76256 12.5303 5.46967C12.2374 5.17678 11.7626 5.17678 11.4697 5.46967L12.5303 6.53033ZM5.46967 11.4697C5.17678 11.7626 5.17678 12.2374 5.46967 12.5303C5.76256 12.8232 6.23744 12.8232 6.53033 12.5303L5.46967 11.4697ZM6.53034 5.46967C6.23744 5.17678 5.76257 5.17678 5.46968 5.46967C5.17678 5.76256 5.17678 6.23744 5.46968 6.53033L6.53034 5.46967ZM11.4697 12.5303C11.7626 12.8232 12.2374 12.8232 12.5303 12.5303C12.8232 12.2374 12.8232 11.7626 12.5303 11.4697L11.4697 12.5303ZM11.4697 5.46967L5.46967 11.4697L6.53033 12.5303L12.5303 6.53033L11.4697 5.46967ZM5.46968 6.53033L11.4697 12.5303L12.5303 11.4697L6.53034 5.46967L5.46968 6.53033ZM15 9C15 12.3137 12.3137 15 9 15V16.5C13.1421 16.5 16.5 13.1421 16.5 9H15ZM9 15C5.68629 15 3 12.3137 3 9H1.5C1.5 13.1421 4.85786 16.5 9 16.5V15ZM3 9C3 5.68629 5.68629 3 9 3V1.5C4.85786 1.5 1.5 4.85786 1.5 9H3ZM9 3C12.3137 3 15 5.68629 15 9H16.5C16.5 4.85786 13.1421 1.5 9 1.5V3Z" fill="#C21313"/>
</svg>
