<svg width="18" height="18" viewBox="0 0 18 18" fill="none" xmlns="http://www.w3.org/2000/svg">
<path d="M8.25 5.25751C8.25 5.67172 8.58579 6.00751 9 6.00751C9.41421 6.00751 9.75 5.67172 9.75 5.25751H8.25ZM9.75 5.25001C9.75 4.8358 9.41421 4.50001 9 4.50001C8.58579 4.50001 8.25 4.8358 8.25 5.25001H9.75ZM8.25 12.75C8.25 13.1642 8.58579 13.5 9 13.5C9.41421 13.5 9.75 13.1642 9.75 12.75H8.25ZM9.75 7.5C9.75 7.08579 9.41421 6.75 9 6.75C8.58579 6.75 8.25 7.08579 8.25 7.5H9.75ZM9.75 5.25751V5.25001H8.25V5.25751H9.75ZM9.75 12.75L9.75 7.5H8.25L8.25 12.75H9.75ZM15 9C15 12.3137 12.3137 15 9 15V16.5C13.1421 16.5 16.5 13.1421 16.5 9H15ZM9 15C5.68629 15 3 12.3137 3 9H1.5C1.5 13.1421 4.85786 16.5 9 16.5V15ZM3 9C3 5.68629 5.68629 3 9 3V1.5C4.85786 1.5 1.5 4.85786 1.5 9H3ZM9 3C12.3137 3 15 5.68629 15 9H16.5C16.5 4.85786 13.1421 1.5 9 1.5V3Z" fill="#7A7A7A"/>
</svg>
