<?xml version="1.0" encoding="iso-8859-1"?>
<!-- Generator: Adobe Illustrator 19.0.0, SVG Export Plug-In . SVG Version: 6.00 Build 0)  -->
<svg version="1.1" id="Layer_1" xmlns="http://www.w3.org/2000/svg" xmlns:xlink="http://www.w3.org/1999/xlink" x="0px" y="0px"
	 viewBox="0 0 330 330" style="enable-background:new 0 0 330 330;" xml:space="preserve">
<g>
	<path style="fill:#F0D03D;" d="M329.99,116.733c-0.005-0.422-0.027-0.844-0.068-1.262c-0.007-0.074-0.011-0.15-0.019-0.225
		c-0.053-0.465-0.129-0.924-0.224-1.379c-0.022-0.109-0.05-0.219-0.075-0.328c-0.093-0.402-0.201-0.803-0.326-1.195
		c-0.021-0.063-0.037-0.129-0.059-0.191c-0.147-0.441-0.319-0.873-0.507-1.297c-0.045-0.102-0.093-0.201-0.14-0.301
		c-0.181-0.385-0.375-0.764-0.587-1.131c-0.026-0.047-0.05-0.094-0.077-0.139c-0.238-0.404-0.5-0.793-0.775-1.174
		c-0.066-0.09-0.135-0.18-0.203-0.27c-0.253-0.332-0.52-0.656-0.801-0.969c-0.044-0.049-0.084-0.1-0.129-0.148
		c-0.26-0.279-0.529-0.553-0.814-0.816l-91.314-84.5c-4.883-4.518-12.158-5.281-17.873-1.871L7.314,144.038
		c-0.097,0.059-0.184,0.123-0.278,0.184c-0.201,0.127-0.4,0.256-0.594,0.391c-0.178,0.123-0.352,0.252-0.523,0.383
		c-0.17,0.129-0.338,0.26-0.5,0.396c-0.183,0.152-0.362,0.309-0.538,0.471c-0.141,0.129-0.28,0.258-0.415,0.391
		c-0.181,0.18-0.354,0.363-0.525,0.549c-0.121,0.133-0.242,0.266-0.357,0.402c-0.165,0.193-0.322,0.393-0.477,0.594
		c-0.111,0.146-0.223,0.291-0.328,0.439c-0.141,0.197-0.273,0.4-0.404,0.605c-0.105,0.166-0.213,0.33-0.311,0.498
		c-0.113,0.193-0.217,0.391-0.322,0.59c-0.1,0.189-0.201,0.379-0.293,0.572c-0.088,0.184-0.165,0.375-0.245,0.563
		c-0.091,0.213-0.184,0.424-0.265,0.641c-0.068,0.186-0.125,0.375-0.186,0.564c-0.073,0.223-0.15,0.445-0.213,0.672
		c-0.063,0.229-0.11,0.461-0.162,0.693c-0.042,0.189-0.094,0.377-0.129,0.568c-0.079,0.43-0.141,0.865-0.182,1.307
		c-0.005,0.055-0.005,0.111-0.009,0.166c-0.033,0.391-0.053,0.785-0.055,1.184c0,0.021-0.003,0.039-0.003,0.06v140.662
		c0,8.285,6.716,15,15,15h300c8.284,0,15-6.715,15-15V116.919C330,116.857,329.991,116.796,329.99,116.733z"/>
	<g>
		<g>
			<path style="fill:#F0D03D;" d="M329.299,121.452c-1.757,5.541-6.556,9.566-12.316,10.336L315,132.052l-15,2l-95.713,12.762
				L16.982,171.788c-0.665,0.09-1.326,0.133-1.982,0.133c-0.003,0-0.007,0-0.01,0c-6.304,0-12.034-3.979-14.155-10.066
				c-0.572-1.643-0.84-3.33-0.832-4.994c0,0.021-0.003,0.039-0.003,0.06v140.662c0,8.285,6.716,15,15,15h300c8.284,0,15-6.715,15-15
				V116.919c0-0.063-0.009-0.123-0.01-0.186C330.01,118.31,329.79,119.901,329.299,121.452z M100.712,237.105
				c0-3.951,1.601-7.82,4.391-10.611c2.79-2.789,6.659-4.389,10.609-4.389c3.95,0,7.811,1.6,10.61,4.389
				c2.79,2.801,4.39,6.66,4.39,10.611c0,3.949-1.6,7.809-4.39,10.6c-2.79,2.799-6.66,4.4-10.61,4.4s-7.819-1.602-10.609-4.4
				C102.312,244.913,100.712,241.054,100.712,237.105z M159.282,197.105c0-3.951,1.61-7.811,4.4-10.611
				c2.789-2.789,6.659-4.389,10.609-4.389c3.94,0,7.81,1.6,10.601,4.389c2.8,2.801,4.399,6.66,4.399,10.611
				c0,3.949-1.6,7.809-4.399,10.6c-2.79,2.799-6.66,4.4-10.601,4.4c-3.95,0-7.82-1.602-10.609-4.4
				C160.893,204.913,159.282,201.054,159.282,197.105z M213.683,226.794c2.789-2.801,6.659-4.4,10.6-4.4c3.95,0,7.82,1.6,10.61,4.4
				c2.79,2.789,4.39,6.66,4.39,10.6c0,3.949-1.6,7.82-4.39,10.609c-2.79,2.791-6.66,4.391-10.61,4.391c-3.94,0-7.811-1.6-10.6-4.391
				c-2.79-2.789-4.4-6.66-4.4-10.609C209.282,233.454,210.893,229.583,213.683,226.794z"/>
		</g>
		<g>
			<path style="fill:#E49429;" d="M329.903,115.247c-0.053-0.465-0.129-0.924-0.224-1.379c-0.022-0.109-0.05-0.219-0.075-0.328
				c-0.093-0.402-0.201-0.803-0.326-1.195c-0.021-0.063-0.037-0.129-0.059-0.191c-0.147-0.441-0.319-0.873-0.507-1.297
				c-0.045-0.102-0.093-0.201-0.14-0.301c-0.181-0.385-0.375-0.764-0.587-1.131c-0.026-0.047-0.05-0.094-0.077-0.139
				c-0.238-0.404-0.5-0.793-0.775-1.174c-0.066-0.09-0.135-0.18-0.203-0.27c-0.253-0.332-0.52-0.656-0.801-0.969
				c-0.044-0.049-0.084-0.1-0.129-0.148c-0.26-0.279-0.529-0.553-0.814-0.816l-91.314-84.5c-4.883-4.518-12.158-5.281-17.873-1.871
				L7.314,144.038c-0.097,0.059-0.184,0.123-0.278,0.184c-0.201,0.127-0.4,0.256-0.594,0.391c-0.178,0.123-0.352,0.252-0.523,0.383
				c-0.17,0.129-0.338,0.26-0.5,0.396c-0.183,0.152-0.362,0.309-0.538,0.471c-0.141,0.129-0.28,0.258-0.415,0.391
				c-0.181,0.18-0.354,0.363-0.525,0.549c-0.121,0.133-0.242,0.266-0.357,0.402c-0.165,0.193-0.322,0.393-0.477,0.594
				c-0.111,0.146-0.223,0.291-0.328,0.439c-0.141,0.197-0.273,0.4-0.404,0.605c-0.105,0.166-0.213,0.33-0.311,0.498
				c-0.113,0.193-0.217,0.391-0.322,0.59c-0.1,0.189-0.201,0.379-0.293,0.572c-0.088,0.184-0.165,0.375-0.245,0.563
				c-0.091,0.213-0.184,0.424-0.265,0.641c-0.068,0.186-0.125,0.375-0.186,0.564c-0.073,0.223-0.15,0.445-0.213,0.672
				c-0.063,0.229-0.11,0.461-0.162,0.693c-0.042,0.189-0.094,0.377-0.129,0.568c-0.079,0.43-0.141,0.865-0.182,1.307
				c-0.005,0.055-0.005,0.111-0.009,0.166c-0.033,0.391-0.053,0.785-0.055,1.184c-0.008,1.664,0.26,3.351,0.832,4.994
				c2.121,6.088,7.851,10.066,14.155,10.066c0.003,0,0.007,0,0.01,0c0.656,0,1.317-0.043,1.982-0.133l187.305-24.975L300,134.052
				l15-2l1.982-0.264c5.761-0.77,10.56-4.795,12.316-10.336c0.491-1.551,0.711-3.143,0.691-4.719
				c-0.005-0.422-0.027-0.844-0.068-1.262C329.915,115.398,329.911,115.321,329.903,115.247z"/>
			<path style="fill:#E49429;" d="M115.712,222.105c-3.95,0-7.819,1.6-10.609,4.389c-2.79,2.791-4.391,6.66-4.391,10.611
				c0,3.949,1.601,7.809,4.391,10.6c2.79,2.799,6.659,4.4,10.609,4.4c3.95,0,7.82-1.602,10.61-4.4c2.79-2.791,4.39-6.65,4.39-10.6
				c0-3.951-1.6-7.811-4.39-10.611C123.522,223.704,119.662,222.105,115.712,222.105z"/>
			<path style="fill:#E49429;" d="M174.292,182.105c-3.95,0-7.82,1.6-10.609,4.389c-2.79,2.801-4.4,6.66-4.4,10.611
				c0,3.949,1.61,7.809,4.4,10.6c2.789,2.799,6.659,4.4,10.609,4.4c3.94,0,7.81-1.602,10.601-4.4c2.8-2.791,4.399-6.65,4.399-10.6
				c0-3.951-1.6-7.811-4.399-10.611C182.102,183.704,178.232,182.105,174.292,182.105z"/>
			<path style="fill:#E49429;" d="M224.282,222.394c-3.94,0-7.811,1.6-10.6,4.4c-2.79,2.789-4.4,6.66-4.4,10.6
				c0,3.949,1.61,7.82,4.4,10.609c2.789,2.791,6.659,4.391,10.6,4.391c3.95,0,7.82-1.6,10.61-4.391
				c2.79-2.789,4.39-6.66,4.39-10.609c0-3.939-1.6-7.811-4.39-10.6C232.102,223.993,228.232,222.394,224.282,222.394z"/>
		</g>
	</g>
</g>
<g>
</g>
<g>
</g>
<g>
</g>
<g>
</g>
<g>
</g>
<g>
</g>
<g>
</g>
<g>
</g>
<g>
</g>
<g>
</g>
<g>
</g>
<g>
</g>
<g>
</g>
<g>
</g>
<g>
</g>
</svg>
